<svg width="19.000000" height="19.000000" viewBox="0 0 19 19" fill="none" xmlns="http://www.w3.org/2000/svg" xmlns:xlink="http://www.w3.org/1999/xlink">
	<desc>
			Created with Pixso.
	</desc>
	<defs/>
	<path id="Vector" d="M5.24 4.01L5.24 3C5.24 2 5.64 1.05 6.34 0.34C7.05 -0.36 8 -0.75 8.99 -0.75C9.99 -0.75 10.94 -0.36 11.65 0.34C12.35 1.05 12.75 2 12.75 3L12.75 4.01C14.04 4.05 14.83 4.18 15.44 4.68C16.27 5.35 16.5 6.51 16.96 8.82L17.56 11.82C18.22 15.14 18.56 16.8 17.66 17.9C16.76 19 15.06 19 11.68 19L6.31 19C2.93 19 1.23 19 0.33 17.9C-0.57 16.8 -0.23 15.14 0.43 11.82L1.03 8.82C1.49 6.51 1.72 5.35 2.55 4.68C3.16 4.18 3.95 4.05 5.25 4.01L5.24 4.01ZM6.74 3C6.74 2.4 6.98 1.83 7.4 1.4C7.83 0.98 8.4 0.75 8.99 0.75C9.59 0.75 10.16 0.98 10.59 1.4C11.01 1.83 11.25 2.4 11.25 3L11.25 4L6.74 4L6.74 3ZM12 8C12.26 8 12.51 7.89 12.7 7.7C12.89 7.51 13 7.26 13 7C13 6.73 12.89 6.48 12.7 6.29C12.51 6.1 12.26 6 12 6C11.73 6 11.48 6.1 11.29 6.29C11.1 6.48 11 6.73 11 7C11 7.26 11.1 7.51 11.29 7.7C11.48 7.89 11.73 8 12 8ZM6.99 7C6.99 7.26 6.89 7.51 6.7 7.7C6.51 7.89 6.26 8 5.99 8C5.73 8 5.48 7.89 5.29 7.7C5.1 7.51 4.99 7.26 4.99 7C4.99 6.73 5.1 6.48 5.29 6.29C5.48 6.1 5.73 6 5.99 6C6.26 6 6.51 6.1 6.7 6.29C6.89 6.48 6.99 6.73 6.99 7Z" fill="#000000" fill-opacity="1.000000" fill-rule="evenodd"/>
</svg>
