<svg width="13.000000" height="13.000000" viewBox="0 0 13 13" fill="none" xmlns="http://www.w3.org/2000/svg" xmlns:xlink="http://www.w3.org/1999/xlink">
	<desc>
			Created with Pixso.
	</desc>
	<defs/>
	<path id="Vector" d="M6.93 5.98L12.46 0.47C12.57 0.34 12.63 0.17 12.62 0.01C12.62 -0.16 12.55 -0.32 12.43 -0.44C12.31 -0.56 12.15 -0.63 11.98 -0.63C11.81 -0.64 11.65 -0.58 11.52 -0.47L6 5.04L0.47 -0.48C0.34 -0.6 0.17 -0.67 0 -0.67C-0.18 -0.67 -0.35 -0.6 -0.48 -0.48C-0.6 -0.35 -0.67 -0.18 -0.67 -0.01C-0.67 0.17 -0.6 0.34 -0.48 0.47L5.06 5.98L-0.48 11.49C-0.55 11.55 -0.6 11.62 -0.64 11.7C-0.68 11.79 -0.71 11.88 -0.71 11.97C-0.71 12.06 -0.7 12.15 -0.67 12.24C-0.63 12.32 -0.58 12.4 -0.52 12.46C-0.45 12.53 -0.37 12.58 -0.29 12.61C-0.2 12.65 -0.11 12.66 -0.02 12.66C0.07 12.65 0.16 12.63 0.25 12.59C0.33 12.55 0.4 12.5 0.46 12.43L6 6.91L11.52 12.43C11.65 12.54 11.81 12.59 11.98 12.59C12.15 12.58 12.31 12.51 12.43 12.39C12.55 12.27 12.62 12.11 12.62 11.95C12.63 11.78 12.57 11.62 12.46 11.49L6.93 5.98Z" fill="#D5B4A8" fill-opacity="1.000000" fill-rule="nonzero"/>
</svg>
